<svg version="1.1" id="Layer_1" xmlns="http://www.w3.org/2000/svg" xmlns:xlink="http://www.w3.org/1999/xlink" x="0px" y="0px"
	 width="100%" viewBox="0 0 310 209" enable-background="new 0 0 310 209" xml:space="preserve">
<path fill="#8F2390" opacity="1.000000" stroke="none" 
	d="
M126.999985,197.737442 
	C97.667305,197.737106 68.834595,197.757294 40.002048,197.697723 
	C37.713470,197.693008 35.286095,197.521423 33.167721,196.753204 
	C28.987984,195.237411 26.825048,191.965164 27.021830,187.462814 
	C27.218599,182.960678 29.653481,179.930313 33.961376,178.762299 
	C36.167461,178.164169 38.557327,178.051056 40.864578,178.047913 
	C73.030449,178.004135 105.196396,178.023254 137.362320,178.012802 
	C146.228790,178.009918 150.972092,174.579498 150.899277,168.287811 
	C150.825775,161.935654 146.267929,158.749863 137.200974,158.747314 
	C113.534851,158.740692 89.868729,158.745621 66.202606,158.741119 
	C64.536331,158.740814 62.857323,158.825623 61.206165,158.656631 
	C56.134155,158.137512 52.371086,154.392792 52.036644,149.666000 
	C51.675407,144.560455 54.867592,140.272659 60.267277,139.447952 
	C63.859261,138.899353 67.573868,139.089188 71.234322,139.066498 
	C79.233841,139.016937 87.236725,139.173553 95.232735,138.997009 
	C101.897240,138.849854 105.604645,135.197388 105.557816,129.312943 
	C105.512695,123.644096 101.502037,119.765488 95.024765,119.733940 
	C72.859123,119.625977 50.692684,119.685875 28.526548,119.675690 
	C19.237789,119.671425 14.429364,116.401344 14.345829,110.053513 
	C14.262153,103.695038 19.216354,100.174438 28.305037,100.172081 
	C55.137753,100.165123 81.970467,100.169266 108.803185,100.168854 
	C110.303146,100.168831 111.803246,100.179253 113.303055,100.163673 
	C121.166214,100.082001 125.911003,96.387444 125.870178,90.386658 
	C125.828766,84.300056 121.228516,80.706688 113.218178,80.693726 
	C90.218773,80.656502 67.219231,80.695488 44.219810,80.662163 
	C37.416962,80.652313 34.209442,78.776917 32.593678,74.109940 
	C30.508564,68.087288 34.274876,61.994167 40.609020,61.262794 
	C42.256153,61.072605 43.938133,61.160625 45.604107,61.160542 
	C122.435677,61.156757 199.267242,61.153416 276.098816,61.160938 
	C290.882812,61.162384 296.750854,66.993469 296.755157,81.667671 
	C296.764587,113.833595 296.772034,145.999542 296.749146,178.165451 
	C296.739868,191.221191 290.165894,197.726715 276.996033,197.730499 
	C227.164017,197.744843 177.332001,197.737076 126.999985,197.737442 
M170.818924,108.408218 
	C164.659988,121.684242 164.450821,135.102615 170.000732,148.595840 
	C178.638748,169.596924 202.356171,181.840820 224.894104,177.006668 
	C247.600250,172.136459 264.606873,150.675903 263.581970,128.186737 
	C262.564636,105.864220 247.297775,86.875160 226.514191,82.081535 
	C203.726974,76.825783 182.412186,86.688774 170.818924,108.408218 
M265.404907,83.841660 
	C268.446869,88.557213 271.921600,89.993294 275.506317,87.725815 
	C278.868713,85.598930 279.977631,82.534218 278.235229,78.763763 
	C276.658020,75.350784 273.755768,74.424576 270.397491,75.236450 
	C266.399750,76.202919 264.887970,79.103432 265.404907,83.841660 
z"/>
<path fill="#8F2590" opacity="1.000000" stroke="none" 
	d="
M136.224197,15.201381 
	C159.986755,15.201319 183.278534,15.307748 206.567993,15.122252 
	C211.972031,15.079209 215.254120,16.848455 217.143204,22.087902 
	C219.337204,28.173014 222.252396,33.995525 224.778061,39.964394 
	C227.012024,45.243946 225.568222,47.774792 220.035233,47.786152 
	C187.261719,47.853455 154.487930,47.851711 121.714401,47.788017 
	C116.510498,47.777905 114.769485,45.117161 116.719406,40.323715 
	C119.161407,34.320583 122.085938,28.505411 124.346825,22.439386 
	C126.401970,16.925398 129.929688,14.432740 136.224197,15.201381 
z"/>
<path fill="#912892" opacity="1.000000" stroke="none" 
	d="
M66.395157,47.838150 
	C59.570034,47.189873 56.350594,44.234779 56.578308,39.239605 
	C56.802246,34.327236 60.435566,31.516893 66.759613,31.474798 
	C73.228470,31.431738 79.699394,31.381380 86.166527,31.496517 
	C91.685493,31.594772 95.529907,35.204407 95.373970,39.866829 
	C95.223259,44.373009 91.558228,47.691715 86.253746,47.798393 
	C79.787140,47.928440 73.316078,47.836510 66.395157,47.838150 
z"/>
<path fill="#D41771" opacity="1.000000" stroke="none" 
	d="
M190.510483,107.540863 
	C203.322952,94.885399 221.086121,93.220123 234.203461,103.202782 
	C247.222931,113.110970 251.315125,130.890198 243.505753,144.709290 
	C236.761414,156.643723 226.351791,162.673126 212.632050,161.844040 
	C199.762451,161.066330 190.260330,154.425964 185.020859,142.701752 
	C179.424210,130.178223 181.434341,118.373848 190.510483,107.540863 
z"/>
</svg>